<svg width="37" height="37" viewBox="0 0 37 37" fill="none" xmlns="http://www.w3.org/2000/svg">
<path d="M21.2801 31.9057L20.5933 31.8403C20.8622 33.3191 21.1274 34.7705 21.3945 36.2438C21.6942 36.1839 21.9704 36.1294 22.2647 36.0713C22.2501 35.9932 22.2392 35.9296 22.2247 35.8678C21.9812 34.8378 21.7396 33.8096 21.4944 32.7813C21.4253 32.487 21.3472 32.1945 21.2746 31.9021C21.6179 31.9438 21.9613 31.9875 22.33 31.9838C22.1883 31.526 22.0575 31.0973 21.9231 30.6613C21.6288 30.7431 21.3527 30.8194 21.0711 30.8975C21.1437 31.2463 21.2128 31.5769 21.2818 31.9075L21.2801 31.9057ZM15.276 4.5725C15.5013 4.64698 15.7374 4.65244 15.9845 4.6924C15.9754 4.61974 15.97 4.56704 15.9609 4.51617C15.7029 3.11372 15.4432 1.71129 15.1834 0.308843C15.1834 0.303393 15.1761 0.299747 15.1725 0.296114C15.167 0.29248 15.1616 0.290672 15.1453 0.281589C14.8782 0.328821 14.5984 0.365143 14.3169 0.452342C14.335 0.537725 14.3496 0.606774 14.3659 0.67399C14.5494 1.4497 14.7328 2.22357 14.9163 2.99928C15.0398 3.52611 15.1597 4.05295 15.2833 4.57977C15.2251 4.57977 15.167 4.58884 15.1089 4.58339C14.8782 4.56704 14.6475 4.54707 14.415 4.53072C14.3695 4.52709 14.3259 4.53072 14.2569 4.53072L14.771 6.02218L15.5322 5.84233C15.445 5.40815 15.3632 4.99033 15.2796 4.5725H15.276ZM19.5942 31.5714C19.5379 31.5696 19.4816 31.5733 19.4271 31.5624C19.2726 31.5315 19.1201 31.4933 18.9638 31.457C18.9384 31.7513 19.1818 36.3492 19.2308 36.48C19.5215 36.4655 19.814 36.4546 20.1156 36.4037C20.1101 36.3147 20.1065 36.2438 20.0992 36.173C19.9594 34.8196 19.8176 33.4644 19.6741 32.111C19.6541 31.9293 19.6196 31.7477 19.5924 31.5678C19.6396 31.5896 19.6869 31.6187 19.7359 31.6296C20.0066 31.6895 20.2773 31.7459 20.577 31.8076C20.5352 31.526 20.497 31.2771 20.4571 31.0192L19.6178 31.15C19.6178 31.2336 19.6214 31.2989 19.6178 31.3643C19.6141 31.4334 19.6014 31.5024 19.5942 31.5696V31.5714ZM1.94186 11.0234C1.91098 11.0234 1.87646 11.0288 1.84739 11.0216C1.76201 10.9961 1.68027 10.9653 1.57853 10.9307C1.49679 11.1142 1.40959 11.285 1.35509 11.4776L1.64027 11.5847L0.917251 13.1198L0.782866 13.1362C0.655701 13.4813 0.639319 13.5722 0.704718 13.6811C0.810084 13.5122 0.833746 13.3178 0.933661 13.1561C2.59044 13.5903 4.23632 14.0227 5.88765 14.4569L6.39805 13.138C4.82484 12.6257 3.25707 12.117 1.67478 11.6029C1.75108 11.4576 1.822 11.334 1.88376 11.2069C1.91101 11.1506 1.92188 11.0852 1.94186 11.0252C2.0109 11.0597 2.07627 11.1015 2.14712 11.1269C3.60225 11.6447 5.05739 12.1588 6.51434 12.6729C6.54704 12.6838 6.58157 12.6893 6.61608 12.6965L7.14475 11.7391C5.72777 11.067 4.31258 10.3948 2.89196 9.72086C2.84655 9.77536 2.8066 9.81897 2.7739 9.8662C2.5341 10.2132 2.29613 10.562 2.05452 10.9089C2.02363 10.9525 1.98001 10.9871 1.94186 11.027V11.0234ZM16.9782 4.92673C17.1999 4.93582 17.3979 5.02666 17.614 5.07208L17.654 5.57893L19.1436 5.61525C19.2926 3.75864 19.4416 1.9111 19.5869 0.0417792L18.6205 0C18.5787 1.79303 18.5387 3.56064 18.4969 5.35185L17.6413 5.0648C17.5559 3.38986 17.4705 1.72219 17.3851 0.0345277C17.069 0.038161 16.7711 0.0563266 16.4677 0.101743C16.4732 0.181675 16.4768 0.2398 16.4841 0.297932C16.5113 0.552262 16.5386 0.806605 16.5658 1.06094C16.6803 2.16182 16.7929 3.26269 16.9092 4.36358C16.9292 4.55251 16.9582 4.73962 16.9836 4.92673C16.9582 4.9122 16.9346 4.8904 16.9092 4.88314C16.6603 4.82864 16.4096 4.77596 16.1589 4.72691C16.1171 4.71783 16.0699 4.72691 16.0136 4.72691C16.0753 5.07025 16.1335 5.39361 16.1935 5.72243L17.0363 5.62252C17.0291 5.55167 17.0236 5.49354 17.02 5.4354C17.0073 5.26464 16.9946 5.09386 16.9819 4.9231L16.9782 4.92673ZM29.533 30.2762C28.6919 29.3842 27.8617 28.5031 27.0297 27.6221C26.8135 27.8201 26.6155 27.9999 26.4048 28.1907C27.1333 29.0499 27.8581 29.9038 28.5921 30.7703L27.9108 31.0991C27.275 30.229 26.6482 29.3715 26.016 28.5086C25.7417 28.7084 25.4819 28.8955 25.2149 29.0899C25.7435 29.8765 26.2667 30.6522 26.799 31.4443L26.1214 31.6332C25.6527 30.8829 25.1895 30.1436 24.7244 29.3987L23.856 29.882C23.9777 30.1163 24.0922 30.3307 24.203 30.5487C24.3156 30.7649 24.4282 30.981 24.5372 31.199C24.6462 31.4134 24.7698 31.6205 24.8643 31.8548L24.2103 31.9675C24.6899 32.9757 25.1567 33.9622 25.6345 34.9649C25.887 34.845 26.1196 34.7342 26.3684 34.6161C25.8779 33.6951 25.4002 32.794 24.9115 31.8784C25.3311 31.7985 25.7254 31.7241 26.1287 31.6459C26.6282 32.4107 27.1114 33.1792 27.6146 33.9458L28.2723 33.5334C27.78 32.8395 27.2986 32.1564 26.8063 31.4606C27.1878 31.3389 27.5475 31.2245 27.9108 31.1082C28.3613 31.6986 28.8009 32.2727 29.2515 32.8631C29.4731 32.6869 29.6802 32.5216 29.9 32.3472C29.4585 31.8185 29.028 31.3008 28.5902 30.7776C28.9263 30.6159 29.2387 30.4651 29.5585 30.3107C29.9708 30.7485 30.3832 31.1845 30.8047 31.6296L31.3769 31.0355C30.9736 30.6486 30.5885 30.2798 30.2033 29.9128L31.2552 29.1807L32.1799 30.0455L32.5613 29.6131C32.2616 29.3424 31.9818 29.0899 31.7021 28.8374C32.1363 28.4232 32.5523 28.0254 32.9774 27.6184C33.1881 27.7856 33.4007 27.9527 33.6241 28.1271C33.7531 27.9327 33.8694 27.7565 33.9911 27.573L33.3443 27.137L32.9628 27.5857C31.7021 26.6774 30.4523 25.7782 29.1951 24.8717L28.4685 25.9798C29.5476 26.9281 30.6157 27.8691 31.6984 28.8229C31.5386 28.9409 31.4023 29.0427 31.2552 29.1535C30.2379 28.2016 29.2296 27.2606 28.2159 26.3123C27.9416 26.6302 27.6783 26.9335 27.404 27.2496C28.3286 28.1307 29.2514 29.01 30.1888 29.9038C29.9617 30.0327 29.7565 30.149 29.5349 30.2744L29.533 30.2762ZM10.4419 4.86134L11.9334 7.16303C12.0914 7.0831 12.2332 7.00862 12.3749 6.93595C12.5148 6.8651 12.6564 6.79606 12.8017 6.7234L11.6791 4.64517L12.3676 4.5507C11.8898 3.54065 11.4229 2.55238 10.9578 1.56776C10.7544 1.615 10.3547 1.80576 10.2185 1.9202C10.4583 2.36891 10.6999 2.81761 10.9379 3.26996C11.1759 3.71867 11.4248 4.16195 11.6555 4.62701L10.4437 4.84681C9.94414 4.07292 9.45184 3.30992 8.9559 2.54148C8.72337 2.69408 8.51266 2.83215 8.29648 2.9793C8.78334 3.67689 9.25565 4.35267 9.73524 5.03937L8.51451 5.47718C9.23027 6.32919 9.92597 7.15577 10.6254 7.98598L11.4229 7.45733C10.867 6.65801 10.3148 5.86413 9.74802 5.05209L10.4419 4.86316V4.86134ZM30.1326 22.8933C30.6594 23.1549 31.1699 23.4093 31.6803 23.6618C32.1908 23.9161 32.7031 24.1686 33.2136 24.4248C33.7204 24.6791 34.2382 24.9153 34.7432 25.1914L34.427 25.7618L34.7723 26.0234C34.8904 25.8 34.9993 25.5947 35.1119 25.3785L34.7704 25.195C35.0302 24.6882 35.2845 24.1941 35.5388 23.6981L35.7132 23.7417L35.9367 23.0805C35.8949 23.0641 35.8677 23.0514 35.8404 23.0459C35.8132 23.0405 35.7859 23.0405 35.755 23.0369C35.6751 23.244 35.5988 23.4402 35.5189 23.6491C33.8385 23.0023 32.178 22.3629 30.5067 21.718C30.3795 22.114 30.2597 22.4919 30.1343 22.8879L30.1326 22.8933ZM30.8301 20.0775L30.6212 21.242C32.3361 21.827 34.0456 22.4174 35.7659 22.9987C35.9912 22.4719 36.1402 21.9505 36.2601 21.4001C34.4435 20.9568 32.6431 20.519 30.8301 20.0757V20.0775ZM5.42985 16.3552L5.75859 14.8729C4.06911 14.4768 2.39598 14.0844 0.713766 13.6902C0.552085 14.1607 0.39949 14.6149 0.308658 15.1018C2.02175 15.5214 3.71676 15.9356 5.42985 16.3552ZM30.8828 19.5634C32.7358 19.9377 34.5688 20.3064 36.3981 20.6752C36.4889 20.3791 36.5725 19.2346 36.5217 19.0675C36.0457 18.9785 31.0935 18.4371 30.9355 18.4589C30.9192 18.8168 30.901 19.1783 30.8828 19.5634ZM36.5125 16.7458C36.28 16.7004 30.97 16.7858 30.8355 16.833C30.8646 17.18 30.8937 17.527 30.921 17.8685C31.2207 17.9284 36.429 18.2791 36.5725 18.2482C36.5834 17.7468 36.558 17.2454 36.5108 16.7476L36.5125 16.7458ZM34.4144 25.7455C32.9138 24.9334 31.4369 24.1323 29.9563 23.3312C29.771 23.7217 29.5948 24.0905 29.4113 24.4793C30.7229 25.3603 32.0328 26.2396 33.3498 27.1243C33.764 26.7065 34.0892 26.2414 34.4144 25.7455ZM5.36075 16.873C4.48695 16.6968 3.62771 16.5205 2.76663 16.348C1.9019 16.1754 1.03716 15.9937 0.156088 15.8266C0.0943226 16.377 0.0362433 16.9002 0.0289767 17.4234C0.359606 17.4997 5.12101 18.0229 5.27906 18.0011L5.36262 16.873H5.36075ZM30.5322 15.218C30.6085 15.5741 30.6775 15.8974 30.752 16.2372C31.7057 16.1808 32.6486 16.13 33.5915 16.07C34.5325 16.0119 35.4734 15.9701 36.4253 15.8956C36.3599 15.387 36.2819 14.9092 36.1656 14.4133C34.2854 14.6821 32.416 14.9473 30.5322 15.2162V15.218ZM5.33716 19.7124L5.27178 18.5988C3.51146 18.4753 1.76386 18.3535 0.0180662 18.2318C-0.0291665 18.5025 0.0234558 19.5998 0.0924882 19.7832C1.83465 19.7596 3.58046 19.736 5.33716 19.7142V19.7124ZM35.5498 12.1824C33.6931 12.6965 31.8729 13.2016 30.0435 13.7084C30.158 14.0336 30.2633 14.3351 30.3741 14.6512C30.8482 14.5604 31.3152 14.4696 31.7802 14.3806C32.2416 14.2915 32.7031 14.2043 33.1645 14.1171C33.6314 14.0281 34.1 13.9391 34.5669 13.8483C35.0302 13.7574 35.4971 13.6848 35.9767 13.5667C35.8314 13.0962 35.6932 12.6493 35.5479 12.1824H35.5498ZM0.428585 22.0831C2.14895 21.8379 3.87476 21.5908 5.60965 21.3437L5.40803 20.2865C3.66042 20.39 1.92007 20.4917 0.181546 20.5935C0.161563 20.8187 0.330532 21.827 0.430448 22.0831H0.428585ZM8.06035 10.4166C6.83775 9.64094 5.62962 8.87432 4.40702 8.09861L4.89391 7.66807L3.93112 6.99226L3.52415 7.53L4.39797 8.09497C4.01466 8.45648 3.64764 8.81617 3.30248 9.21764C4.6686 9.93885 6.01844 10.651 7.37183 11.3649L8.05849 10.4166H8.06035ZM29.8091 13.1507C31.6131 12.5512 33.4098 11.9553 35.2228 11.354C35.0393 10.9071 34.8612 10.4857 34.6342 10.0787C32.8738 10.8217 31.1335 11.5557 29.3841 12.2932L29.8091 13.1507ZM5.76409 21.9305C4.04554 22.2593 2.33792 22.5881 0.608475 22.9188C0.737457 23.3984 0.866421 23.8525 1.04445 24.3103C2.7303 23.8453 4.4052 23.382 6.08741 22.9115L5.76409 21.9305ZM33.497 8.11677C31.8475 9.07778 30.2107 10.0297 28.5666 10.9871C28.7428 11.2523 28.9063 11.4975 29.0734 11.7501C30.7902 10.918 32.4905 10.0933 34.2072 9.26124C33.9783 8.86158 33.7531 8.48737 33.497 8.11677ZM6.75233 24.3921L6.32176 23.4983C4.66317 24.0487 3.01187 24.5919 1.35509 25.1496C1.53857 25.5947 1.71837 26.0125 1.94 26.4231C3.54773 25.7437 5.14097 25.0733 6.75233 24.3939V24.3921ZM32.1436 6.32375C30.6176 7.49548 29.117 8.64542 27.6129 9.8008L28.1814 10.4675C29.7765 9.41929 31.357 8.3838 32.952 7.33015C32.6759 6.98499 32.416 6.66164 32.1436 6.32193V6.32375ZM7.07202 24.9589C5.50062 25.72 3.94196 26.4758 2.37057 27.2369C2.60128 27.6402 2.82475 28.0144 3.0809 28.3814C4.59235 27.5022 6.08564 26.632 7.588 25.7582C7.41361 25.4875 7.25005 25.2332 7.07202 24.9589ZM27.1532 9.31575C28.5992 8.06953 30.0308 6.83967 31.4696 5.59891C31.1698 5.29553 30.8937 5.00305 30.5739 4.73964C29.2224 6.08032 27.8835 7.40827 26.5374 8.7435C26.75 8.94152 26.9443 9.12319 27.1532 9.31575ZM7.98761 26.2995C6.5343 27.2551 5.09006 28.2034 3.62403 29.168C3.90016 29.5114 4.16184 29.8384 4.43434 30.1763C5.82407 29.1099 7.1956 28.058 8.57625 26.9971C8.37642 26.7591 8.18563 26.5339 7.98761 26.2995ZM10.2294 8.27482C9.44825 7.4319 8.67975 6.59987 7.89678 5.75332L8.52178 5.47173L7.11566 3.80406L6.52161 4.27638C6.97941 4.77415 7.42448 5.25556 7.88046 5.75332C7.45536 5.96223 7.0539 6.16206 6.66513 6.41276C7.60252 7.2575 8.52358 8.08951 9.4537 8.92699L10.2294 8.27482ZM26.0087 8.30389C27.2786 6.88691 28.5357 5.48263 29.8019 4.06928C29.4894 3.80587 29.1788 3.57334 28.85 3.34626C27.6783 4.84863 26.521 6.33465 25.3584 7.82611C25.5836 7.99143 25.7872 8.14221 26.007 8.30207L26.0087 8.30389ZM5.1083 30.8975C5.39715 31.2099 5.68957 31.4897 6.00022 31.7622C7.24098 30.5305 8.46364 29.317 9.69533 28.0944L9.054 27.5003C7.7333 28.6376 6.42719 29.7621 5.1083 30.8975ZM24.094 7.06129C24.3156 7.18846 24.5173 7.30474 24.7189 7.41737C24.7316 7.42463 24.7517 7.4228 24.7662 7.42462C25.0587 7.06674 27.9054 2.88303 27.949 2.73951C27.6347 2.55785 27.3167 2.37254 26.9843 2.17997C26.0178 3.81313 25.0605 5.42813 24.0959 7.06129H24.094ZM7.71875 33.1574C8.79602 31.7749 9.85879 30.4124 10.927 29.0409C10.6926 28.8719 10.4729 28.7139 10.2476 28.5504C9.08313 29.8493 7.9313 31.1355 6.76501 32.4362L7.71875 33.1574ZM24.9914 1.25349C24.2411 3.00292 23.5018 4.72328 22.7606 6.45272C22.8914 6.50722 23.0004 6.55265 23.1094 6.59988C23.2166 6.64529 23.3237 6.69069 23.44 6.73974C24.2993 5.05208 25.1477 3.3826 26.007 1.69131L24.9914 1.25349ZM11.5501 29.4351C10.5655 30.872 9.58814 32.2963 8.59807 33.7405C8.93778 33.9385 9.25746 34.1238 9.59172 34.3182C10.4837 32.8104 11.3648 31.3244 12.2513 29.8238L11.5501 29.4333V29.4351ZM22.9095 0.575884C22.3918 2.39979 21.8831 4.19282 21.369 5.99856L22.0485 6.19839C22.6734 4.42352 23.2965 2.66139 23.925 0.875634L22.9078 0.575884H22.9095ZM13.6465 30.4397L12.938 30.149C12.1459 31.7059 11.3647 33.2446 10.5691 34.8087C10.916 34.9577 11.2394 35.0975 11.5828 35.2447C12.2713 33.6388 12.9544 32.051 13.6465 30.4397ZM9.05223 9.3103C8.04944 8.46011 7.06293 7.62265 6.07286 6.78154C5.66594 7.04859 5.28268 7.33561 4.90846 7.66261C6.08201 8.45103 7.24098 9.22854 8.39999 10.0097L9.05223 9.3103ZM19.9412 5.70608L20.6115 5.82417C21.0003 3.98573 21.3891 2.16363 21.7724 0.328823C21.429 0.259791 21.1129 0.192576 20.7714 0.170776C20.4934 2.02194 20.2173 3.85492 19.9393 5.70608H19.9412ZM22.3791 32.0038C22.4154 32.2509 23.5018 35.5971 23.5854 35.7188C23.8379 35.6353 24.094 35.5499 24.3647 35.4609C23.9269 34.3 23.4981 33.1628 23.0621 32.0074C23.4454 31.9657 23.8052 31.9965 24.1794 31.9548C23.8924 31.3244 23.618 30.7213 23.3419 30.1145L22.4572 30.4742C22.6534 30.9847 22.8423 31.4806 23.0422 32.002H22.3791V32.0038ZM14.3913 30.6849C13.81 32.329 13.2341 33.9622 12.6491 35.6226C12.9961 35.7243 13.3231 35.8187 13.6665 35.9205C14.1479 34.2292 14.6221 32.5615 15.0998 30.8793L14.3913 30.6849ZM15.8864 31.0392C15.523 32.7595 15.1634 34.4563 14.8 36.1748C15.1452 36.2293 15.4649 36.282 15.8028 36.3347C16.0626 34.5907 16.3261 32.8722 16.5804 31.1391C16.3388 31.1046 16.1244 31.0737 15.8864 31.0392ZM17.9592 36.5C17.9992 34.7215 18.0373 32.9812 18.0773 31.2263H17.4233C17.3688 31.4552 16.9946 36.3183 17.0236 36.46C17.3252 36.4728 17.6304 36.4855 17.9592 36.5ZM14.226 4.50528C13.8227 3.24998 13.4266 2.01829 13.0252 0.770255C12.7436 0.852004 12.482 0.931955 12.2132 1.03914C12.6546 2.20724 13.0888 3.35535 13.523 4.50528H14.2242H14.226ZM13.4994 4.49619L12.3803 4.5289L13.3141 6.49814L14.0806 6.21475L13.4994 4.49619ZM6.08564 6.77063L6.64881 6.40912L5.42985 5.29552C5.26636 5.47537 5.09915 5.62796 4.94474 5.80962L6.08564 6.77063ZM2.63401 8.86886L2.3161 9.41929L2.8956 9.69542L3.29707 9.21403L2.63215 8.86705L2.63401 8.86886ZM18.4787 31.2245L18.4697 31.2608L18.9148 31.4043V31.199L18.4787 31.2245Z" fill="#0E1114"/>
</svg>
